<svg width="25" height="18" viewBox="0 0 25 18" fill="none" xmlns="http://www.w3.org/2000/svg">
<path d="M22.4596 2.7714C23.711 2.49801 24.8981 3.44868 24.8981 4.72953V8.12457C24.8981 9.0801 24.223 9.90945 23.282 10.0753C23.1365 10.1009 23.0191 10.1202 22.9527 10.1286C22.6214 10.1703 21.5805 10.5064 20.826 9.78125C19.6625 8.66617 15.5288 4.5552 15.5288 4.5552C15.5288 4.5552 14.816 3.85581 13.6716 4.46025C12.6211 5.01395 11.0638 5.82542 10.4133 6.1414C9.1837 6.79588 8.16456 5.7575 8.16456 4.96653C8.16456 4.353 8.54741 3.93659 9.09468 3.63035C10.5779 2.73123 13.7039 0.976533 15.006 0.284733C15.7974 -0.136195 16.3676 -0.172264 17.4542 0.743087C18.7924 1.86852 19.9832 2.8944 19.9832 2.8944C19.9832 2.8944 20.3717 3.21857 20.9911 3.088C21.4341 2.99436 21.9503 2.88267 22.4596 2.7714ZM8.44458 15.0026C8.64477 14.4883 8.57786 13.9131 8.19405 13.5184C7.84918 13.1654 7.34567 13.0724 6.86556 13.1824C6.99984 12.7062 6.92569 12.1994 6.57896 11.8417C6.23304 11.4896 5.73048 11.3947 5.25042 11.5057C5.3837 11.0302 5.30975 10.5234 4.96282 10.1668C4.41957 9.6096 3.4799 9.63351 2.8626 10.2219C2.24857 10.8111 1.85522 11.8787 2.40324 12.507C2.95036 13.1322 3.57902 12.7518 4.05827 12.6426C3.92494 13.1181 3.52547 13.5604 4.01743 14.1827C4.50894 14.8054 5.19315 14.4276 5.67291 14.3194C5.53913 14.7931 5.15708 15.2798 5.63015 15.8569C6.1075 16.4357 6.88932 16.1273 7.4057 15.9669C7.20641 16.4792 6.77986 17.0315 7.32788 17.6504C7.87505 18.2738 9.13954 17.9854 9.7572 17.3961C10.3732 16.8069 10.4323 15.873 9.89052 15.314C9.51647 14.9305 8.95885 14.8413 8.44458 15.0026ZM19.7147 11.0815C15.2498 6.61648 17.3499 8.71751 14.947 6.30949C14.947 6.30949 14.2249 5.59056 13.2731 6.00818C12.605 6.30095 11.7448 6.69998 11.0975 7.00461C10.3863 7.37756 9.87445 7.493 9.63412 7.4914C8.25916 7.4824 7.14362 6.37726 7.14362 5.00366C7.14362 4.11257 7.61669 3.33677 8.32225 2.8964C9.31442 2.20983 11.5981 0.995121 11.5981 0.995121C11.5981 0.995121 10.9024 0.113529 9.37837 0.113529C7.85476 0.113529 4.6715 2.19893 4.6715 2.19893C4.6715 2.19893 3.76846 2.77734 2.48116 2.25635C1.2677 1.83379 0 2.7347 0 4.01963V8.59296C0 9.4363 0.564344 10.1629 1.34507 10.4818C1.48885 10.0718 1.72084 9.69314 2.04265 9.38042C3.09876 8.3745 4.84929 8.36405 5.81015 9.35344C6.09961 9.65421 6.30161 10.013 6.40469 10.4096C6.79186 10.5291 7.14256 10.7408 7.42439 11.0312C7.7147 11.3299 7.91594 11.6907 8.01988 12.0853C8.4066 12.2049 8.7568 12.4174 9.03957 12.708C9.35802 13.0364 9.57017 13.4331 9.66923 13.8628C10.0735 13.9806 10.4388 14.1997 10.733 14.5005C11.3105 15.0936 11.5155 15.8983 11.3913 16.6746L11.3951 16.6764C11.4045 16.6887 11.7529 17.077 11.9701 17.2961C12.3958 17.7222 13.0909 17.7222 13.5179 17.2961C13.9421 16.8701 13.944 16.1764 13.5179 15.7482C13.5026 15.733 11.9821 14.1425 12.1045 14.0192C12.2259 13.8967 14.1632 15.9125 14.1993 15.9494C14.6244 16.3746 15.3191 16.3746 15.7461 15.9494C16.1722 15.5234 16.1713 14.8297 15.7461 14.4026C15.7252 14.3827 15.638 14.2991 15.6057 14.2659C15.6057 14.2659 13.685 12.5548 13.8311 12.4086C13.9791 12.2616 16.3649 14.488 16.3688 14.488C16.7977 14.8742 17.4583 14.8714 17.8709 14.4586C18.2723 14.0572 18.2809 13.4223 17.925 12.9944C17.9175 12.9716 16.1068 11.0794 16.2481 10.937C16.3915 10.7928 18.1831 12.6376 18.1869 12.6414C18.6111 13.0666 19.3067 13.0666 19.7338 12.6414C20.1589 12.2162 20.1589 11.5216 19.7338 11.0927C19.728 11.089 19.7204 11.0852 19.7147 11.0815Z" fill="white"/>
</svg>
