<svg width="18" height="18" viewBox="0 0 18 18" fill="none" xmlns="http://www.w3.org/2000/svg">
<path d="M4.42334 2.67188L3.36816 5.83594H4.36618L5.42061 2.67188H4.42334Z" fill="white"/>
<path d="M17.4722 2.67188H16.9448V2.14453C16.9448 1.85305 16.709 1.61719 16.4175 1.61719C16.126 1.61719 15.8902 1.85305 15.8902 2.14453V2.67188H6.53209L5.47754 5.83594H17.9995V3.19922C17.9995 2.90774 17.7637 2.67188 17.4722 2.67188Z" fill="white"/>
<path d="M1.58203 2.67188C1.29055 2.67188 1.05469 2.90774 1.05469 3.19922C1.05469 3.49017 0.817805 3.72656 0.527344 3.72656C0.235863 3.72656 0 3.96243 0 4.25391V5.83594H2.2564L3.31109 2.67188H1.58203Z" fill="white"/>
<path d="M0 6.89062V7.41797C0 7.70945 0.235863 7.94531 0.527344 7.94531C0.817805 7.94531 1.05469 8.1817 1.05982 8.39798L0.184184 14.5768C0.0484805 15.5278 0.783 16.3828 1.74375 16.3828H3.81811C4.6112 16.3828 5.28581 15.789 5.38777 15.0016L5.75135 12.1641H7.91016C8.78253 12.1641 9.49219 11.4544 9.49219 10.582V9H15.3633C15.5631 9 15.7454 8.88722 15.835 8.70852L16.7439 6.89062C3.98419 6.89062 6.82981 6.89062 0 6.89062ZM6.32813 11.1094C5.74618 11.1094 5.27344 10.6361 5.27344 10.0547C5.27344 9.47327 5.74618 9 6.32813 9H6.36314C6.21791 9.46543 6.1919 9.96398 6.3199 10.444C6.38311 10.6827 6.48985 10.9016 6.61447 11.1094H6.32813ZM8.4375 10.582C8.4375 10.8328 8.25803 11.0331 8.02357 11.0865C7.69026 10.8783 7.44124 10.5568 7.33852 10.1737C7.2327 9.77498 7.29679 9.35462 7.5015 9H8.4375V10.582Z" fill="white"/>
</svg>
