<svg width="23" height="23" viewBox="0 0 23 23" fill="none" xmlns="http://www.w3.org/2000/svg">
<path fill-rule="evenodd" clip-rule="evenodd" d="M2.88884 12.4055L6.86986 5.18391C7.2488 4.45652 7.74098 3.77269 8.34641 3.16291C11.5347 -0.0253921 16.7048 -0.0253921 19.8931 3.16291C23.0814 6.35121 23.0814 11.5213 19.8931 14.7096C19.2267 15.376 18.4732 15.903 17.6717 16.2907L8.35948 21.3911L9.72278 18.5904L1.76074 22.2056L5.71127 14.7227L3.59445 15.2541L5.15811 11.5126L2.88884 12.4055ZM9.04554 8.12393L10.3479 7.73628C10.3479 7.73628 10.3609 7.65352 10.3653 7.64046C10.6353 6.17698 11.1057 4.85287 13.1616 4.24744C15.4352 3.57668 17.5433 4.79189 18.4493 6.56027C19.1462 7.92793 18.9458 9.88359 18.0224 11.1424C17.3735 12.0222 16.2889 12.7801 15.1565 12.7757C15.0652 12.7757 14.4349 13.491 14.0256 13.9555C13.8485 14.1564 13.7128 14.3104 13.6799 14.3394C13.6755 14.3394 12.5997 13.233 12.5997 13.233L10.1867 14.9361L9.95151 11.5823L7.48188 11.1903L10.0168 9.40012L9.04554 8.12393Z" fill="white"/>
<path d="M8.04829 2.85366C7.41673 3.48086 6.89406 4.19954 6.48898 4.97919L2.51232 12.1964C2.42521 12.3576 2.44699 12.5579 2.56459 12.693C2.68219 12.828 2.87819 12.8802 3.05242 12.8106L4.36345 12.2966L3.19615 15.0885C3.13082 15.241 3.16131 15.4152 3.26584 15.5415C3.37473 15.6678 3.54024 15.7201 3.7014 15.6809L4.87306 15.3891L1.37987 22.0009C1.29275 22.1664 1.31889 22.3667 1.44956 22.5018C1.58022 22.6368 1.77623 22.676 1.94609 22.5976L8.80616 19.4833L7.97424 21.1951C7.89149 21.365 7.92633 21.5697 8.06571 21.7003C8.20509 21.831 8.4098 21.8571 8.57532 21.7657L17.4215 16.9222C17.6306 16.8046 17.709 16.5433 17.5958 16.3299C17.4782 16.1208 17.2168 16.0424 17.0034 16.1557L9.35933 20.3414L10.1216 18.769C10.2 18.6035 10.1695 18.4075 10.0432 18.2725C9.91684 18.1418 9.71648 18.1026 9.55097 18.181L2.74752 21.2822L6.10134 14.9361C6.17974 14.7836 6.16667 14.6007 6.05778 14.4657C5.95325 14.3307 5.77467 14.2697 5.60915 14.3132L4.33296 14.6268L5.56124 11.6868C5.62658 11.5257 5.59173 11.3384 5.46977 11.2121C5.34782 11.0857 5.16053 11.0465 4.99937 11.1119L3.85385 11.5605L7.25121 5.39297C7.25121 5.38862 7.25557 5.38426 7.25557 5.38426C7.62144 4.67865 8.09185 4.03403 8.65807 3.47215C11.6721 0.458078 16.5722 0.458078 19.5863 3.47215C22.4 6.28587 22.6003 10.8723 20.0349 13.9125C19.8781 14.0955 19.9042 14.3699 20.0872 14.5267C20.2701 14.6835 20.5445 14.6573 20.7013 14.4744C22.0123 12.9194 22.7223 10.9681 22.7223 8.93843C22.7223 8.82518 22.718 8.70758 22.7136 8.59434C22.6265 6.42961 21.7336 4.39118 20.2004 2.85801C16.8553 -0.495799 11.3977 -0.495799 8.04829 2.85366Z" fill="white"/>
<path d="M18.6974 15.1844C18.4796 15.2758 18.3707 15.5328 18.4622 15.7549C18.5537 15.9727 18.8106 16.0816 19.0328 15.9901C19.2506 15.8987 19.3594 15.6417 19.268 15.4196C19.1722 15.2018 18.9152 15.0929 18.6974 15.1844Z" fill="white"/>
<path d="M2.45613 9.1475L5.431 4.02531C5.5486 3.8206 5.47891 3.55055 5.2742 3.4286C5.06513 3.30664 4.79944 3.38068 4.67748 3.5854L1.70261 8.70758C1.58065 8.91665 1.65469 9.18234 1.85941 9.3043C2.06848 9.42626 2.33417 9.35657 2.45613 9.1475Z" fill="white"/>
<path d="M11.1972 21.6437C10.9838 21.7526 10.8967 22.014 11.0012 22.2274C11.1101 22.4408 11.3714 22.5279 11.5849 22.4234L16.5415 19.9407C16.694 19.8623 16.7811 19.7098 16.7811 19.553C16.7811 19.4877 16.768 19.4224 16.7332 19.357C16.6243 19.1436 16.363 19.0565 16.1495 19.161L11.1972 21.6437Z" fill="white"/>
<path d="M1.15777 11.138C1.37555 11.0466 1.48444 10.7896 1.39297 10.5674C1.30151 10.3497 1.04453 10.2408 0.822391 10.3322C0.604611 10.4237 0.495721 10.6807 0.587188 10.9028C0.678656 11.1206 0.939992 11.2295 1.15777 11.138Z" fill="white"/>
<path d="M18.1712 20.0452C17.9578 20.1585 17.875 20.4198 17.9883 20.6332C18.1015 20.8466 18.3629 20.9294 18.5763 20.8162L20.2358 19.9494C20.3839 19.871 20.471 19.7185 20.471 19.5617C20.471 19.492 20.4535 19.4267 20.4231 19.3614C20.3098 19.148 20.0485 19.0652 19.835 19.1784L18.1712 20.0452Z" fill="white"/>
</svg>
