<svg width="18" height="18" viewBox="0 0 18 18" fill="none" xmlns="http://www.w3.org/2000/svg">
<g clip-path="url(#clip0)">
<path d="M17.4336 14.6991L14.9669 12.2325L12.2324 14.967L14.6991 17.4337C15.4542 18.1888 16.6785 18.1888 17.4336 17.4337C18.1887 16.6785 18.1887 15.4543 17.4336 14.6991Z" fill="white"/>
<path d="M7.75592 15.2458C7.89085 15.2458 8.02585 15.1943 8.12879 15.0913C8.33473 14.8853 8.33473 14.5515 8.12879 14.3455L7.50919 13.7259L17.8061 5.30726C17.9286 5.2071 17.9997 5.05723 17.9997 4.89899V0.527344C17.9997 0.236109 17.7636 0 17.4723 0H13.1006C12.9424 0 12.7925 0.0710508 12.6924 0.193535L4.27373 10.4904L3.65413 9.87086C3.44822 9.66495 3.11431 9.66491 2.90837 9.87086C2.70242 10.0768 2.70242 10.4107 2.90837 10.6166L7.38302 15.0913C7.48599 15.1943 7.62092 15.2458 7.75592 15.2458ZM14.7165 2.5374C14.9224 2.33146 15.2563 2.33146 15.4623 2.5374C15.6682 2.74335 15.6682 3.07723 15.4623 3.28317L6.26435 12.4811L5.51858 11.7353L14.7165 2.5374Z" fill="white"/>
<path d="M3.30086 17.4337L5.7675 14.967L3.03301 12.2325L0.566341 14.6992C-0.18878 15.4543 -0.18878 16.6786 0.566341 17.4337C1.32146 18.1888 2.54574 18.1888 3.30086 17.4337Z" fill="white"/>
<path d="M0.193535 5.30729L4.36261 8.71587L5.98532 6.73109L2.5374 3.28317C2.33146 3.07726 2.33146 2.74335 2.5374 2.5374C2.74335 2.33146 3.07723 2.33146 3.28317 2.5374L6.65627 5.9105L8.31885 3.877L5.30729 0.193535C5.20713 0.0710508 5.05726 0 4.89902 0H0.527344C0.236109 0 0 0.236109 0 0.527344V4.89906C0 5.0573 0.0710508 5.20713 0.193535 5.30729Z" fill="white"/>
<path d="M14.3459 9.87089L13.7263 10.4905L13.4888 10.2L12.0898 11.3437L12.4815 11.7353L11.7357 12.4811L11.2692 12.0147L9.83348 13.1885L10.4908 13.7259L9.87124 14.3455C9.66533 14.5514 9.6653 14.8853 9.87124 15.0913C10.0772 15.2972 10.4111 15.2972 10.617 15.0913L15.0917 10.6166C15.1946 10.5137 15.2461 10.3787 15.2461 10.2438C15.2461 10.1088 15.1946 9.97383 15.0917 9.87089C14.8857 9.66494 14.5518 9.66494 14.3459 9.87089Z" fill="white"/>
</g>
<defs>
<clipPath id="clip0">
<rect width="18" height="18" fill="white"/>
</clipPath>
</defs>
</svg>
