<svg width="257" height="209" viewBox="0 0 257 209" fill="none" xmlns="http://www.w3.org/2000/svg">
<g filter="url(#filter0_dii)">
<path d="M34.9613 30.166C37.2717 16.224 49.3294 6 63.4616 6H213.93C231.771 6 245.347 22.011 242.43 39.6117L222.039 162.665C219.728 176.607 207.671 186.831 193.538 186.831H43.0701C25.2294 186.831 11.6532 170.82 14.5699 153.219L34.9613 30.166Z" fill="url(#paint0_radial)" fill-opacity="0.5" shape-rendering="crispEdges"/>
<path d="M36.0465 30.3458C38.2689 16.9347 49.8675 7.1 63.4616 7.1H213.93C231.091 7.1 244.15 22.5014 241.345 39.4319L220.953 162.485C218.731 175.896 207.132 185.731 193.538 185.731H43.0701C25.9087 185.731 12.8495 170.329 15.6551 153.399L36.0465 30.3458Z" stroke="url(#paint1_linear)" stroke-opacity="0.6" stroke-width="2.2" shape-rendering="crispEdges"/>
<path d="M36.0465 30.3458C38.2689 16.9347 49.8675 7.1 63.4616 7.1H213.93C231.091 7.1 244.15 22.5014 241.345 39.4319L220.953 162.485C218.731 175.896 207.132 185.731 193.538 185.731H43.0701C25.9087 185.731 12.8495 170.329 15.6551 153.399L36.0465 30.3458Z" stroke="url(#paint2_linear)" stroke-opacity="0.6" stroke-width="2.2" shape-rendering="crispEdges"/>
</g>
<defs>
<filter id="filter0_dii" x="-0.270612" y="-2.66666" width="257.096" height="211.497" filterUnits="userSpaceOnUse" color-interpolation-filters="sRGB">
<feFlood flood-opacity="0" result="BackgroundImageFix"/>
<feColorMatrix in="SourceAlpha" type="matrix" values="0 0 0 0 0 0 0 0 0 0 0 0 0 0 0 0 0 0 127 0" result="hardAlpha"/>
<feOffset dy="8"/>
<feGaussianBlur stdDeviation="7"/>
<feComposite in2="hardAlpha" operator="out"/>
<feColorMatrix type="matrix" values="0 0 0 0 0 0 0 0 0 0 0 0 0 0 0 0 0 0 1 0"/>
<feBlend mode="normal" in2="BackgroundImageFix" result="effect1_dropShadow"/>
<feBlend mode="normal" in="SourceGraphic" in2="effect1_dropShadow" result="shape"/>
<feColorMatrix in="SourceAlpha" type="matrix" values="0 0 0 0 0 0 0 0 0 0 0 0 0 0 0 0 0 0 127 0" result="hardAlpha"/>
<feOffset dy="-8.66666"/>
<feGaussianBlur stdDeviation="17.3333"/>
<feComposite in2="hardAlpha" operator="arithmetic" k2="-1" k3="1"/>
<feColorMatrix type="matrix" values="0 0 0 0 0.583416 0 0 0 0 0.575 0 0 0 0 1 0 0 0 0.3 0"/>
<feBlend mode="normal" in2="shape" result="effect2_innerShadow"/>
<feColorMatrix in="SourceAlpha" type="matrix" values="0 0 0 0 0 0 0 0 0 0 0 0 0 0 0 0 0 0 127 0" result="hardAlpha"/>
<feOffset dx="-14.4444" dy="20.2222"/>
<feGaussianBlur stdDeviation="36.8333"/>
<feComposite in2="hardAlpha" operator="arithmetic" k2="-1" k3="1"/>
<feColorMatrix type="matrix" values="0 0 0 0 0.11816 0 0 0 0 0.127267 0 0 0 0 0.345833 0 0 0 1 0"/>
<feBlend mode="normal" in2="effect2_innerShadow" result="effect3_innerShadow"/>
</filter>
<radialGradient id="paint0_radial" cx="0" cy="0" r="1" gradientUnits="userSpaceOnUse" gradientTransform="translate(114.442 270.291) rotate(91.8578) scale(142.653 91.1591)">
<stop offset="0.00520833" stop-color="#CA29F2"/>
<stop offset="1"/>
</radialGradient>
<linearGradient id="paint1_linear" x1="164.388" y1="84.2441" x2="213.691" y2="32.9314" gradientUnits="userSpaceOnUse">
<stop stop-color="white" stop-opacity="0"/>
<stop offset="1" stop-color="#302E93"/>
</linearGradient>
<linearGradient id="paint2_linear" x1="9.00002" y1="181.887" x2="52.4955" y2="118.853" gradientUnits="userSpaceOnUse">
<stop offset="0.296875" stop-color="#7B15AB"/>
<stop offset="1" stop-color="white" stop-opacity="0"/>
</linearGradient>
</defs>
</svg>
