<svg width="18" height="18" viewBox="0 0 18 18" fill="none" xmlns="http://www.w3.org/2000/svg">
<path d="M7.30353 4.92117V0.527344C7.30353 0.236109 7.06743 0 6.77619 0H1.94238C1.65115 0 1.41504 0.236109 1.41504 0.527344V3.71851H4.23738C5.41976 3.71851 6.49733 4.17519 7.30353 4.92117ZM3.51197 2.15128C3.51197 1.86005 3.74808 1.62394 4.03931 1.62394H4.67926C4.9705 1.62394 5.20661 1.86005 5.20661 2.15128C5.20661 2.44252 4.9705 2.67863 4.67926 2.67863H4.03931C3.74808 2.67863 3.51197 2.44255 3.51197 2.15128Z" fill="white"/>
<path d="M17.6648 4.26431L14.5668 1.67006C14.4719 1.59057 14.352 1.54702 14.2282 1.54702H13.2559V0.527344C13.2559 0.236109 13.0198 0 12.7285 0C12.4373 0 12.2012 0.236109 12.2012 0.527344V1.54702H11.3896V4.26431H17.6648Z" fill="white"/>
<path d="M8.75604 10.2925H10.3347V4.5831L8.29785 6.25611C8.59109 6.85468 8.75601 7.52712 8.75601 8.23738V10.2925H8.75604Z" fill="white"/>
<path d="M8.75576 11.3472V17.4727C8.75576 17.6578 8.72299 17.8353 8.66309 18H17.4726C17.7638 18 17.9999 17.7639 17.9999 17.4727V11.3472H8.75576ZM14.8596 13.1747C14.8596 12.8835 15.0957 12.6474 15.3869 12.6474C15.6782 12.6474 15.9143 12.8835 15.9143 13.1747V13.6892C15.9143 13.9804 15.6782 14.2166 15.3869 14.2166C15.0957 14.2166 14.8596 13.9804 14.8596 13.6892V13.1747ZM14.8596 15.6211C14.8596 15.3299 15.0957 15.0938 15.3869 15.0938C15.6782 15.0938 15.9143 15.3299 15.9143 15.6211V16.1356C15.9143 16.4269 15.6782 16.663 15.3869 16.663C15.0957 16.663 14.8596 16.4269 14.8596 16.1356V15.6211ZM12.7627 13.1747C12.7627 12.8835 12.9988 12.6474 13.29 12.6474C13.5812 12.6474 13.8173 12.8835 13.8173 13.1747V13.6892C13.8173 13.9804 13.5812 14.2166 13.29 14.2166C12.9988 14.2166 12.7627 13.9804 12.7627 13.6892V13.1747ZM12.7627 15.6211C12.7627 15.3299 12.9988 15.0938 13.29 15.0938C13.5812 15.0938 13.8173 15.3299 13.8173 15.6211V16.1356C13.8173 16.4269 13.5812 16.663 13.29 16.663C12.9988 16.663 12.7627 16.4269 12.7627 16.1356V15.6211ZM10.6657 13.1747C10.6657 12.8835 10.9018 12.6474 11.1931 12.6474C11.4843 12.6474 11.7204 12.8835 11.7204 13.1747V13.6892C11.7204 13.9804 11.4843 14.2166 11.1931 14.2166C10.9018 14.2166 10.6657 13.9804 10.6657 13.6892V13.1747ZM10.6657 15.6211C10.6657 15.3299 10.9018 15.0938 11.1931 15.0938C11.4843 15.0938 11.7204 15.3299 11.7204 15.6211V16.1356C11.7204 16.4269 11.4843 16.663 11.1931 16.663C10.9018 16.663 10.6657 16.4269 10.6657 16.1356V15.6211Z" fill="white"/>
<path d="M11.3896 5.319H18.0005V7.18116H11.3896V5.319Z" fill="white"/>
<path d="M11.3896 8.23584H18.0005V10.2925H11.3896V8.23584Z" fill="white"/>
<path d="M3.84883 14.1683C3.26826 14.1683 2.7959 14.6406 2.7959 15.2212V18H4.90173V15.2212C4.90176 14.6406 4.42944 14.1683 3.84883 14.1683Z" fill="white"/>
<path d="M7.73631 17.4727V8.23738C7.73631 6.30783 6.16651 4.73804 4.23696 4.73804H0.527344C0.236109 4.73804 0 4.97415 0 5.26538V17.4727C0 17.7639 0.236109 18 0.527344 18H1.74168V15.2212C1.74168 14.059 2.68713 13.1136 3.84929 13.1136C5.01145 13.1136 5.95691 14.059 5.95691 15.2212V18H7.209C7.5002 18 7.73631 17.7639 7.73631 17.4727ZM4.73055 12.0714H2.968C2.67676 12.0714 2.44065 11.8352 2.44065 11.544C2.44065 11.2528 2.67676 11.0167 2.968 11.0167H4.73055C5.02179 11.0167 5.2579 11.2528 5.2579 11.544C5.2579 11.8352 5.02182 12.0714 4.73055 12.0714ZM4.73055 9.97442H2.968C2.67676 9.97442 2.44065 9.73831 2.44065 9.44708C2.44065 9.15584 2.67676 8.91973 2.968 8.91973H4.73055C5.02179 8.91973 5.2579 9.15584 5.2579 9.44708C5.2579 9.73831 5.02182 9.97442 4.73055 9.97442ZM4.73055 7.84054H2.968C2.67676 7.84054 2.44065 7.60443 2.44065 7.3132C2.44065 7.02196 2.67676 6.78585 2.968 6.78585H4.73055C5.02179 6.78585 5.2579 7.02196 5.2579 7.3132C5.2579 7.60443 5.02182 7.84054 4.73055 7.84054Z" fill="white"/>
</svg>
