<svg width="20" height="19" viewBox="0 0 20 19" fill="none" xmlns="http://www.w3.org/2000/svg">
<g clip-path="url(#clip0)">
<path d="M10.3574 0.59375C5.13947 0.59375 0.894531 4.33913 0.894531 8.94336C0.894531 10.8883 1.66425 12.773 3.0651 14.2668C3.34234 15.41 3.00583 16.6211 2.17087 17.456C1.82175 17.8052 2.06863 18.4062 2.56445 18.4062C4.15066 18.4062 5.67979 17.7849 6.81589 16.6891C7.94004 17.0902 9.12944 17.293 10.3574 17.293C15.5754 17.293 19.8945 13.5476 19.8945 8.94336C19.8945 4.33913 15.5754 0.59375 10.3574 0.59375ZM5.97852 10.6133C5.05768 10.6133 4.30859 9.86419 4.30859 8.94336C4.30859 8.02253 5.05768 7.27344 5.97852 7.27344C6.89935 7.27344 7.64844 8.02253 7.64844 8.94336C7.64844 9.86419 6.89935 10.6133 5.97852 10.6133ZM10.4316 10.6133C9.51081 10.6133 8.76172 9.86419 8.76172 8.94336C8.76172 8.02253 9.51081 7.27344 10.4316 7.27344C11.3525 7.27344 12.1016 8.02253 12.1016 8.94336C12.1016 9.86419 11.3525 10.6133 10.4316 10.6133ZM14.8848 10.6133C13.9639 10.6133 13.2148 9.86419 13.2148 8.94336C13.2148 8.02253 13.9639 7.27344 14.8848 7.27344C15.8056 7.27344 16.5547 8.02253 16.5547 8.94336C16.5547 9.86419 15.8056 10.6133 14.8848 10.6133Z" fill="white"/>
</g>
<defs>
<clipPath id="clip0">
<rect width="19" height="19" fill="white" transform="translate(0.894531)"/>
</clipPath>
</defs>
</svg>
