<svg width="18" height="17" viewBox="0 0 18 17" fill="none" xmlns="http://www.w3.org/2000/svg">
<path d="M15.4551 2.125H14.7468V0.70829C14.7468 0.317375 14.4294 0 14.0384 0H13.3301C12.939 0 12.6218 0.317375 12.6218 0.70829V2.125H5.53837V0.70829C5.53837 0.317375 5.22112 0 4.83008 0H4.12179C3.73074 0 3.41337 0.317375 3.41337 0.70829V2.125H2.70508C1.5335 2.125 0.580078 3.07842 0.580078 4.25V14.875C0.580078 16.0466 1.5335 17 2.70508 17H15.4551C16.6267 17 17.5801 16.0466 17.5801 14.875V4.25C17.5801 3.07842 16.6267 2.125 15.4551 2.125ZM16.1634 14.875C16.1634 15.2653 15.8453 15.5833 15.4551 15.5833H2.70508C2.31481 15.5833 1.99679 15.2653 1.99679 14.875V7.11169H16.1634V14.875Z" fill="url(#paint0_linear)"/>
<defs>
<linearGradient id="paint0_linear" x1="9.08008" y1="0" x2="9.08008" y2="17" gradientUnits="userSpaceOnUse">
<stop stop-color="white"/>
<stop offset="0.661458" stop-color="#5E5CDA"/>
</linearGradient>
</defs>
</svg>
