<svg width="22" height="22" viewBox="0 0 22 22" fill="none" xmlns="http://www.w3.org/2000/svg">
<path d="M11 0C4.92525 0 0 4.92525 0 11C0 17.0748 4.92525 22 11 22C17.0748 22 22 17.0748 22 11C22 4.92525 17.0748 0 11 0ZM11 2.75C12.7806 2.75 14.4189 3.33025 15.7671 4.29138L4.28862 15.7644C3.3275 14.4162 2.75 12.7779 2.75 11C2.75 6.45081 6.45081 2.75 11 2.75ZM11 19.25C9.21937 19.25 7.58106 18.6698 6.23287 17.7086L17.7114 6.23562C18.6725 7.58381 19.25 9.22213 19.25 11C19.25 15.5492 15.5492 19.25 11 19.25Z" fill="white"/>
</svg>
