<svg width="18" height="25" viewBox="0 0 18 25" fill="none" xmlns="http://www.w3.org/2000/svg">
<path opacity="0.2" d="M9.00011 0C4.98702 0 1.722 3.27968 1.722 7.31109V11.4866C1.722 11.5341 1.66371 11.614 1.61792 11.6293C1.22435 11.7612 0.904709 11.8754 0.61211 11.9887C0.263177 12.1239 0 12.5123 0 12.8923V22.4866C0 22.864 0.261477 23.2528 0.608199 23.3908C3.29086 24.4587 6.1143 25 9.00006 25C11.8858 25 14.7093 24.4585 17.3921 23.3907C17.7387 23.2527 18 22.864 18 22.4866V12.8923C18 12.5123 17.7369 12.1239 17.3878 11.9886C17.095 11.8753 16.7754 11.761 16.3822 11.6292C16.3365 11.6139 16.2782 11.5339 16.2782 11.4865V7.31096C16.278 3.27968 13.0132 0 9.00011 0ZM7.01773 15.8144C7.01773 14.7138 7.90526 13.8232 8.99998 13.8232C10.0946 13.8232 10.9821 14.7137 10.9821 15.8144C10.9821 16.5437 10.5727 17.1542 9.99104 17.5004V20.7924C9.99104 21.3428 9.54776 21.788 8.99994 21.788C8.45207 21.788 8.00883 21.3428 8.00883 20.7924V17.5004C7.42717 17.1542 7.01773 16.5437 7.01773 15.8144ZM13.7756 7.31096V10.9137C12.2095 10.5752 10.6029 10.4037 9.00074 10.4036C7.39932 10.4036 5.793 10.5751 4.22452 10.9133V7.31096C4.22452 4.66577 6.36676 2.51386 8.99998 2.51386C11.6332 2.51382 13.7756 4.66577 13.7756 7.31096Z" fill="white"/>
</svg>
