<svg width="39" height="36" viewBox="0 0 39 36" fill="none" xmlns="http://www.w3.org/2000/svg">
<g filter="url(#filter0_d)">
<path d="M30.2578 19.1159C32.1219 19.1159 33.6385 17.5993 33.6385 15.7352V14.1204H31.496C30.8379 14.1204 30.2015 14.3127 29.6563 14.6681C29.5954 14.3327 29.5191 14.0014 29.4266 13.6754L30.0729 13.3035C30.855 12.852 31.4143 12.123 31.6481 11.2507C31.8818 10.3784 31.7619 9.46731 31.3104 8.68526L30.503 7.28684L28.6475 8.35811C28.0776 8.68716 27.6228 9.17182 27.3289 9.75217C27.0959 9.47844 26.8477 9.21589 26.5854 8.96515L26.8968 8.42568C27.3483 7.64363 27.4683 6.73254 27.2346 5.86028C27.0008 4.98801 26.4414 4.25898 25.6594 3.80744L24.261 3.00006L23.1897 4.85551C22.7382 5.63755 22.6182 6.54864 22.852 7.42091C23.0857 8.29317 23.6451 9.0222 24.4271 9.47374L25.0317 9.82276C27.0132 11.5026 28.1487 13.9519 28.1487 16.5546C28.1487 21.423 24.1879 25.3837 19.3194 25.3837C14.451 25.3837 10.4903 21.423 10.4903 16.5546C10.4903 13.9519 11.6258 11.5026 13.6073 9.82276L14.2118 9.47374C14.9939 9.02225 15.5532 8.29317 15.787 7.42091C16.0207 6.54864 15.9007 5.63755 15.4492 4.85551L14.378 3L12.9796 3.80744C12.1975 4.25893 11.6381 4.98795 11.4044 5.86028C11.1706 6.73254 11.2906 7.64363 11.7421 8.42568L12.0536 8.96515C11.7912 9.21595 11.5429 9.47861 11.3099 9.75245C11.0159 9.17193 10.5611 8.68716 9.99108 8.35811L8.13558 7.28684L7.32813 8.68526C6.87665 9.46731 6.75667 10.3784 6.99041 11.2507C7.22416 12.1229 7.78354 12.852 8.56659 13.3041L9.21228 13.6756C9.11971 14.0016 9.04342 14.3329 8.98256 14.6683C8.43728 14.3127 7.80071 14.1204 7.14255 14.1204H5V15.7352C5 17.5994 6.51661 19.1159 8.3819 19.1159L9.12832 19.1149C9.21172 19.4468 9.31105 19.7724 9.42527 20.0911C8.77449 20.0548 8.12674 20.206 7.55684 20.535L5.70128 21.6063L6.50878 23.0047C6.96027 23.7868 7.68929 24.3461 8.56161 24.5799C8.8528 24.6579 9.14818 24.6965 9.44182 24.6965C10.0278 24.6965 10.6063 24.5427 11.128 24.2415L11.7793 23.8642C12.0162 24.1085 12.2648 24.3413 12.5242 24.5618C11.9419 24.8556 11.4556 25.3113 11.1257 25.8827L10.0545 27.7382L11.4529 28.5455C11.9738 28.8463 12.5519 28.9999 13.1377 28.9999C13.4314 28.9999 13.727 28.9614 14.0183 28.8833C14.8905 28.6495 15.6196 28.0901 16.0717 27.3071L16.4432 26.6616C17.3576 26.9222 18.3225 27.0618 19.3194 27.0618C20.3162 27.0618 21.281 26.9223 22.1953 26.6617L22.5673 27.3082C23.0188 28.0902 23.7478 28.6496 24.6201 28.8833C24.9114 28.9614 25.207 29 25.5007 29C26.0864 29 26.6646 28.8464 27.1855 28.5456L28.5839 27.7382L27.5127 25.8827C27.1828 25.3114 26.6967 24.8559 26.1144 24.562C26.3739 24.3415 26.6225 24.1087 26.8594 23.8644L27.5115 24.2422C28.0324 24.543 28.6105 24.6966 29.1964 24.6966C29.49 24.6966 29.7857 24.658 30.0769 24.58C30.9492 24.3462 31.6782 23.7869 32.1297 23.0048L32.9372 21.6064L31.0816 20.5351C30.5118 20.2061 29.8642 20.055 29.2136 20.0911C29.3278 19.7725 29.4271 19.4469 29.5105 19.115L30.2578 19.1159Z" fill="url(#paint0_linear)"/>
<path d="M16.0274 18.0989L15.2574 22.6198L19.319 20.4904L23.3807 22.6198L22.6106 18.0989L25.8909 14.8941L21.3533 14.2295L19.319 10.1193L17.2847 14.2294L12.7471 14.8941L16.0274 18.0989Z" fill="url(#paint1_linear)"/>
</g>
<defs>
<filter id="filter0_d" x="0" y="0" width="38.6385" height="36" filterUnits="userSpaceOnUse" color-interpolation-filters="sRGB">
<feFlood flood-opacity="0" result="BackgroundImageFix"/>
<feColorMatrix in="SourceAlpha" type="matrix" values="0 0 0 0 0 0 0 0 0 0 0 0 0 0 0 0 0 0 127 0" result="hardAlpha"/>
<feOffset dy="2"/>
<feGaussianBlur stdDeviation="2.5"/>
<feComposite in2="hardAlpha" operator="out"/>
<feColorMatrix type="matrix" values="0 0 0 0 0.866667 0 0 0 0 0.447778 0 0 0 0 0.144444 0 0 0 0.43 0"/>
<feBlend mode="normal" in2="BackgroundImageFix" result="effect1_dropShadow"/>
<feBlend mode="normal" in="SourceGraphic" in2="effect1_dropShadow" result="shape"/>
</filter>
<linearGradient id="paint0_linear" x1="19.3193" y1="3" x2="19.3193" y2="29" gradientUnits="userSpaceOnUse">
<stop offset="0.296875" stop-color="#FEEDA8"/>
<stop offset="0.734375" stop-color="#D2A456"/>
</linearGradient>
<linearGradient id="paint1_linear" x1="19.319" y1="10.1193" x2="19.319" y2="22.6198" gradientUnits="userSpaceOnUse">
<stop offset="0.296875" stop-color="#FEEDA8"/>
<stop offset="0.734375" stop-color="#D2A456"/>
</linearGradient>
</defs>
</svg>
