<svg width="20" height="20" viewBox="0 0 20 20" fill="none" xmlns="http://www.w3.org/2000/svg">
<path d="M19.8668 8.71255L17.6693 4.27304C17.2919 3.49613 16.515 3.00778 15.6271 3.00778H4.35072C3.46282 3.00778 2.7081 3.47393 2.30855 4.27304L0.110988 8.69035C0.0443951 8.82354 0 8.97892 0 9.11211V15.0832C0 16.1265 0.843507 16.9922 1.90899 16.9922H18.091C19.1343 16.9922 20 16.1487 20 15.0832V9.13431C19.9778 8.97892 19.9334 8.82354 19.8668 8.71255ZM13.8513 8.17981C13.4073 8.17981 13.03 8.49058 12.919 8.93453C12.8968 9.02332 12.3862 11.3985 9.9667 11.3985C7.61376 11.3985 7.08102 9.2009 7.01443 8.93453C6.92564 8.49058 6.54828 8.17981 6.08213 8.17981H2.48613L4.01776 5.11655C4.08435 5.00556 4.21754 4.89457 4.35072 4.89457H15.6271C15.7603 4.89457 15.8935 4.96117 15.96 5.11655L17.4695 8.17981H13.8513Z" fill="white"/>
</svg>
