<svg width="25" height="25" viewBox="0 0 25 25" fill="none" xmlns="http://www.w3.org/2000/svg">
<path d="M4.52588 10.5468C4.83008 10.8515 5.32617 10.8515 5.63037 10.5468L6.64062 9.53659C6.94531 9.23239 6.94531 8.7363 6.64062 8.4321L5.63037 7.42184H19.5312C20.8237 7.42184 21.875 8.47311 21.875 9.76559C21.875 10.4116 22.4009 10.9375 23.0469 10.9375H23.8281C24.4741 10.9375 25 10.4116 25 9.76559C25 6.74997 22.5469 4.29684 19.5312 4.29684H5.63037L6.64062 3.28659C6.94531 2.98239 6.94531 2.4863 6.64062 2.1821L5.63037 1.17184C5.32617 0.867157 4.83008 0.867157 4.52588 1.17184L0.114258 5.58298C-0.0380859 5.73581 -0.0380859 5.98288 0.114258 6.13571L4.52588 10.5468Z" fill="white"/>
<path d="M20.4741 14.4531C20.1699 14.1484 19.6743 14.1484 19.3696 14.4531L18.3594 15.4633C18.0541 15.7686 18.0536 16.2621 18.3594 16.5678L19.3696 17.5781H5.46875C4.17627 17.5781 3.125 16.5268 3.125 15.2343C3.125 14.5883 2.59912 14.0625 1.95312 14.0625H1.17188C0.525879 14.0625 0 14.5883 0 15.2343C0 18.25 2.45312 20.7031 5.46875 20.7031H19.3696L18.3594 21.7133C18.0541 22.0186 18.0536 22.5121 18.3594 22.8178L19.3696 23.8281C19.6744 24.1328 20.1694 24.1328 20.4741 23.8281L24.8857 19.417C25.0381 19.2641 25.0381 19.0171 24.8857 18.8642L20.4741 14.4531Z" fill="white"/>
</svg>
