<svg width="16" height="18" viewBox="0 0 16 18" fill="none" xmlns="http://www.w3.org/2000/svg">
<path d="M5.18555 16.1868C5.65738 17.2535 6.72519 18 7.96464 18C9.20409 18 10.2719 17.2535 10.7437 16.1868H5.18555Z" fill="white"/>
<path d="M15.3254 14.0071H0.605394C0.32691 14.0071 0.0718234 13.8193 0.013901 13.5468C-0.0434316 13.2771 0.0794913 13.0109 0.328876 12.8957C0.388057 12.8573 0.833505 12.5458 1.27946 11.6035C2.09852 9.87288 2.27044 7.43507 2.27044 5.69472C2.27044 2.5546 4.82512 0 7.9652 0C11.0978 0 13.6478 2.54229 13.6599 5.67211C13.6602 5.67962 13.6603 5.68717 13.6603 5.69472C13.6603 7.43507 13.8323 9.87288 14.6513 11.6035C15.0973 12.5458 15.5427 12.8574 15.6019 12.8957C15.8513 13.0109 15.9743 13.2771 15.9169 13.5468C15.859 13.8192 15.6039 14.0071 15.3254 14.0071ZM15.6085 12.8999H15.6089H15.6085Z" fill="white"/>
</svg>
