<svg width="20" height="24" viewBox="0 0 20 24" fill="none" xmlns="http://www.w3.org/2000/svg">
<path d="M5 7.24501L5.75623 14.0162C5.82437 14.6264 6.05347 15.2066 6.41898 15.6935C8.51429 18.485 9.89948 19.1536 10.2201 19.1676C10.2326 19.1676 10.25 19.1646 10.2656 19.1627V6C9.01869 6.81309 7.45557 7.28235 5.80814 7.28235C5.53745 7.28235 5.2674 7.26969 5 7.24501Z" fill="white"/>
<path d="M19.0039 3.12698C18.8292 2.999 18.6217 2.93332 18.4118 2.93332C18.2747 2.93332 18.1368 2.96155 18.0069 3.0191C17.2353 3.3624 16.3322 3.55969 15.3669 3.55969C13.2096 3.55969 11.3654 2.57453 10.5974 1.17724C10.5372 1.06794 10.4228 1 10.2981 1C10.1726 1 10.0583 1.06823 9.99807 1.17758C9.71128 1.69989 9.27264 2.16451 8.72465 2.54164C8.50604 2.69197 8.26547 2.82397 8.01387 2.94469C7.9552 2.97293 7.89212 2.99709 7.83114 3.02356C7.64484 3.10497 7.45338 3.17869 7.25315 3.24251C7.16738 3.27001 7.08072 3.29569 6.99205 3.31991C6.79765 3.37275 6.59737 3.41495 6.39195 3.45048C6.3047 3.46558 6.21892 3.4843 6.12937 3.49602C5.83597 3.53445 5.53673 3.55979 5.22861 3.55979C4.19728 3.55979 3.23868 3.33422 2.43379 2.94695C2.35748 2.91023 1.85394 2.73932 1.42079 3.03204C1.11905 3.23589 0.966024 3.59783 1.00636 3.95951L2.18372 14.5074C2.32013 15.7262 2.7794 16.8919 3.51513 17.8725C5.01667 19.8725 7.75639 23 10.2116 23C12.757 23 15.4717 19.86 16.9425 17.8604C17.6599 16.8849 18.0994 15.7522 18.2343 14.5488L19.4065 4.04485C19.4468 3.6888 19.2927 3.33892 19.0039 3.12698ZM16.7416 14.3813C16.6344 15.3341 16.2948 16.2052 15.7322 16.9703C13.6474 19.8051 11.5833 21.4977 10.2115 21.4977C8.91826 21.4977 6.81304 19.7629 4.71665 16.971C4.14375 16.2066 3.78354 15.2971 3.67639 14.3409L2.593 4.6322C3.41969 4.91492 4.31614 5.06202 5.22861 5.06202C7.21433 5.06202 9.05697 4.36114 10.2981 3.19776C11.5393 4.36114 13.3819 5.06202 15.3669 5.06202C16.2112 5.06202 17.0467 4.93512 17.8227 4.69161L16.7416 14.3813Z" fill="white" stroke="white" stroke-width="0.5"/>
</svg>
