<svg width="16" height="18" viewBox="0 0 16 18" fill="none" xmlns="http://www.w3.org/2000/svg">
<path d="M15.5913 14.7318L11.0559 7.88315V3.85073H11.389C11.7806 3.85073 12.0981 3.53325 12.0981 3.14168V0.709054C12.0981 0.317486 11.7806 0 11.389 0H4.61047C4.21891 0 3.90142 0.317486 3.90142 0.709054V3.14168C3.90142 3.53325 4.21891 3.85073 4.61047 3.85073H4.94356V7.88315L0.408163 14.7318C-0.0206732 15.3793 -0.0587353 16.2067 0.308782 16.8908C0.676299 17.575 1.38706 18 2.16373 18H13.8357C14.6124 18 15.3232 17.575 15.6907 16.8908C16.0583 16.2067 16.0202 15.3793 15.5913 14.7318ZM5.31953 1.41811H10.68V2.43262C10.1992 2.43262 5.90328 2.43262 5.31953 2.43262V1.41811ZM9.63784 3.85073V8.09661C9.63784 8.23587 9.67885 8.372 9.75571 8.48806L10.4768 9.57694H7.22445L3.90363 14.5914C3.68745 14.9178 3.24767 15.0074 2.921 14.7911C2.59449 14.5749 2.50509 14.135 2.72127 13.8085L6.24379 8.48801C6.32071 8.37195 6.36167 8.23581 6.36167 8.09655V3.85073H9.63784Z" fill="white"/>
</svg>
