<svg width="27" height="28" viewBox="0 0 27 28" fill="none" xmlns="http://www.w3.org/2000/svg">
<path d="M2.87861 14.4664C2.87861 10.6571 5.23654 7.38859 8.56925 6.04257L10.2698 2.62683C4.47272 3.45038 0 8.4454 0 14.4664C0 19.9443 3.70234 24.5734 8.73594 25.984L9.06302 23.0735C5.47169 21.8618 2.87861 18.4613 2.87861 14.4664Z" fill="url(#paint0_linear)"/>
<path d="M26.4931 14.4664C26.4931 8.98957 22.7924 4.3613 17.7605 2.94971L17.426 5.858C21.0194 7.06855 23.6145 10.4701 23.6145 14.4664C23.6145 18.2535 21.284 21.5059 17.9821 22.8664L16.2344 26.3043C22.026 25.4761 26.4931 20.4835 26.4931 14.4664Z" fill="url(#paint1_linear)"/>
<path d="M20.0892 13.0171C20.2025 12.7941 20.1918 12.5491 20.0609 12.3359C19.9301 12.1226 19.6978 12.0376 19.4476 12.0376H13.9763L15.1541 1.79814C15.1943 1.451 14.9791 1.09136 14.6439 0.991863C14.5747 0.971353 14.5047 0.961548 14.4355 0.961548C14.1697 0.961548 13.9186 1.11276 13.7949 1.36113L6.3957 16.2288C6.2847 16.4518 6.29693 16.7487 6.42809 16.9607C6.55933 17.1725 6.7907 17.3451 7.03997 17.3451H12.4391L11.3322 27.1992C11.2936 27.545 11.5078 27.8358 11.8411 27.9355C11.9096 27.956 11.9789 27.9615 12.0474 27.9615C12.3126 27.9615 12.5638 27.8143 12.6891 27.5677L20.0892 13.0171Z" fill="url(#paint2_linear)"/>
<defs>
<linearGradient id="paint0_linear" x1="5.13489" y1="2.62683" x2="5.13489" y2="25.984" gradientUnits="userSpaceOnUse">
<stop stop-color="white"/>
<stop offset="0.661458" stop-color="#5E5CDA"/>
</linearGradient>
<linearGradient id="paint1_linear" x1="21.3637" y1="2.94971" x2="21.3637" y2="26.3043" gradientUnits="userSpaceOnUse">
<stop stop-color="white"/>
<stop offset="0.661458" stop-color="#5E5CDA"/>
</linearGradient>
<linearGradient id="paint2_linear" x1="13.2438" y1="0.961548" x2="13.2438" y2="27.9615" gradientUnits="userSpaceOnUse">
<stop stop-color="white"/>
<stop offset="0.661458" stop-color="#5E5CDA"/>
</linearGradient>
</defs>
</svg>
