<svg width="37" height="34" viewBox="0 0 37 34" fill="none" xmlns="http://www.w3.org/2000/svg">
<g filter="url(#filter0_d)">
<path d="M28.3149 17.8763C30.0356 17.8763 31.4355 16.4763 31.4355 14.7556V13.265H29.4578C28.8504 13.265 28.2629 13.4425 27.7596 13.7705C27.7035 13.461 27.633 13.1551 27.5476 12.8543L28.1442 12.5109C28.8661 12.0942 29.3825 11.4212 29.5982 10.616C29.814 9.81082 29.7033 8.96982 29.2865 8.24793L28.5412 6.95708L26.8285 7.94595C26.3024 8.24969 25.8826 8.69706 25.6113 9.23277C25.3962 8.9801 25.1671 8.73774 24.9249 8.50629L25.2125 8.00832C25.6292 7.28643 25.74 6.44543 25.5242 5.64025C25.3085 4.83509 24.7921 4.16214 24.0702 3.74533L22.7794 3.00005L21.7905 4.71277C21.3737 5.43466 21.263 6.27567 21.4788 7.08084C21.6945 7.88601 22.2109 8.55895 22.9328 8.97576L23.4908 9.29793C25.3199 10.8485 26.368 13.1094 26.368 15.5119C26.368 20.0058 22.7119 23.6619 18.218 23.6619C13.724 23.6619 10.0679 20.0058 10.0679 15.5119C10.0679 13.1095 11.1161 10.8485 12.9452 9.29793L13.5032 8.97576C14.2251 8.559 14.7414 7.88601 14.9572 7.08084C15.1729 6.27567 15.0622 5.43466 14.6454 4.71277L13.6566 3L12.3657 3.74533C11.6439 4.16209 11.1275 4.83503 10.9117 5.64025C10.696 6.44543 10.8067 7.28643 11.2235 8.00832L11.511 8.50629C11.2688 8.7378 11.0396 8.98025 10.8245 9.23303C10.5532 8.69716 10.1334 8.24969 9.60715 7.94595L7.89438 6.95708L7.14905 8.24793C6.73229 8.96982 6.62154 9.81082 6.83731 10.616C7.05307 11.4212 7.56942 12.0941 8.29224 12.5114L8.88826 12.8544C8.80281 13.1553 8.73238 13.4612 8.67621 13.7707C8.17287 13.4425 7.58527 13.265 6.97774 13.265H5V14.7556C5 16.4764 6.39995 17.8763 8.12176 17.8763L8.81076 17.8753C8.88774 18.1816 8.97943 18.4822 9.08486 18.7764C8.48415 18.7429 7.88622 18.8825 7.36016 19.1862L5.64734 20.175L6.39272 21.4659C6.80948 22.1878 7.48242 22.7041 8.28764 22.9199C8.55643 22.9919 8.82909 23.0275 9.10015 23.0275C9.64102 23.0275 10.1751 22.8856 10.6566 22.6076L11.2578 22.2593C11.4765 22.4848 11.706 22.6997 11.9454 22.9032C11.4079 23.1744 10.959 23.595 10.6545 24.1225L9.66565 25.8352L10.9565 26.5805C11.4374 26.8581 11.971 26.9999 12.5118 26.9999C12.7828 26.9999 13.0557 26.9643 13.3246 26.8922C14.1297 26.6765 14.8027 26.1601 15.22 25.4373L15.5629 24.8415C16.407 25.082 17.2977 25.2109 18.2179 25.2109C19.1381 25.2109 20.0286 25.0821 20.8726 24.8416L21.216 25.4383C21.6328 26.1602 22.3057 26.6765 23.1109 26.8923C23.3798 26.9644 23.6526 27 23.9237 27C24.4644 27 24.9981 26.8582 25.4789 26.5806L26.7698 25.8353L25.781 24.1225C25.4765 23.5952 25.0277 23.1746 24.4902 22.9034C24.7297 22.6998 24.9592 22.485 25.1779 22.2594L25.7798 22.6082C26.2607 22.8858 26.7943 23.0276 27.3351 23.0276C27.6061 23.0276 27.8791 22.992 28.1479 22.92C28.9531 22.7042 29.626 22.1879 30.0428 21.466L30.7882 20.1751L29.0753 19.1863C28.5493 18.8826 27.9516 18.7431 27.351 18.7764C27.4564 18.4823 27.5481 18.1817 27.6251 17.8754L28.3149 17.8763Z" fill="url(#paint0_linear)"/>
<path d="M15.028 17.3658L14.3172 21.539L18.0664 19.5733L21.8156 21.539L21.1048 17.3658L24.1328 14.4076L19.9443 13.794L18.0664 10L16.1886 13.794L12 14.4075L15.028 17.3658Z" fill="url(#paint1_linear)"/>
</g>
<defs>
<filter id="filter0_d" x="0" y="0" width="36.4355" height="34" filterUnits="userSpaceOnUse" color-interpolation-filters="sRGB">
<feFlood flood-opacity="0" result="BackgroundImageFix"/>
<feColorMatrix in="SourceAlpha" type="matrix" values="0 0 0 0 0 0 0 0 0 0 0 0 0 0 0 0 0 0 127 0" result="hardAlpha"/>
<feOffset dy="2"/>
<feGaussianBlur stdDeviation="2.5"/>
<feComposite in2="hardAlpha" operator="out"/>
<feColorMatrix type="matrix" values="0 0 0 0 0.217865 0 0 0 0 0.543144 0 0 0 0 0.5875 0 0 0 1 0"/>
<feBlend mode="normal" in2="BackgroundImageFix" result="effect1_dropShadow"/>
<feBlend mode="normal" in="SourceGraphic" in2="effect1_dropShadow" result="shape"/>
</filter>
<linearGradient id="paint0_linear" x1="18.2178" y1="3" x2="18.2178" y2="27" gradientUnits="userSpaceOnUse">
<stop offset="0.296875" stop-color="#FEEDA8"/>
<stop offset="0.734375" stop-color="#D2A456"/>
</linearGradient>
<linearGradient id="paint1_linear" x1="18.0664" y1="10" x2="18.0664" y2="21.539" gradientUnits="userSpaceOnUse">
<stop offset="0.296875" stop-color="#FEEDA8"/>
<stop offset="0.734375" stop-color="#D2A456"/>
</linearGradient>
</defs>
</svg>
