<svg width="20" height="20" viewBox="0 0 20 20" fill="none" xmlns="http://www.w3.org/2000/svg">
<path fill-rule="evenodd" clip-rule="evenodd" d="M10 20C15.5228 20 20 15.5228 20 10C20 4.47715 15.5228 0 10 0C4.47715 0 0 4.47715 0 10C0 15.5228 4.47715 20 10 20ZM10.3059 6.60086H8.22465L7.10935 8.62234L6.03389 6.60086H3.95265L6.09363 9.99655L3.7037 13.5715H5.78493L7.0994 11.2513L8.37402 13.5715H10.4553L8.11512 9.99655L10.3059 6.60086ZM13.7469 6.60086H11.327V13.5715H13.01V11.1517H13.7469C14.6298 11.1517 15.3003 10.9492 15.7584 10.5442C16.2231 10.1393 16.4554 9.58495 16.4554 8.88125C16.4554 8.17755 16.2231 7.62322 15.7584 7.21826C15.3003 6.80666 14.6298 6.60086 13.7469 6.60086ZM13.01 7.98503H13.7469C14.0854 7.98503 14.351 8.06137 14.5435 8.21406C14.736 8.36675 14.8323 8.58915 14.8323 8.88125C14.8323 9.16672 14.736 9.38579 14.5435 9.53848C14.351 9.69117 14.0854 9.76752 13.7469 9.76752H13.01V7.98503Z" fill="url(#paint0_linear)"/>
<defs>
<linearGradient id="paint0_linear" x1="10" y1="0" x2="10" y2="20" gradientUnits="userSpaceOnUse">
<stop stop-color="white"/>
<stop offset="0.661458" stop-color="#5E5CDA"/>
</linearGradient>
</defs>
</svg>
